<?xml version="1.0" standalone="no"?>
<!DOCTYPE svg PUBLIC "-//W3C//DTD SVG 20010904//EN"
 "http://www.w3.org/TR/2001/REC-SVG-20010904/DTD/svg10.dtd">
<svg version="1.0" xmlns="http://www.w3.org/2000/svg"
 width="640.000000pt" height="417.000000pt" viewBox="0 0 640.000000 417.000000"
 preserveAspectRatio="xMidYMid meet">
<metadata>
Created by potrace 1.12, written by Peter Selinger 2001-2015
</metadata>
<g transform="translate(0.000000,417.000000) scale(0.100000,-0.100000)"
fill="#000000" stroke="none">
<path d="M4440 4129 c-102 -21 -201 -40 -220 -43 -19 -3 -174 -35 -345 -70
-170 -36 -332 -66 -359 -66 -27 0 -88 5 -136 12 -184 24 -421 -43 -569 -163
-66 -52 -121 -56 -121 -7 0 15 -6 17 -47 11 -87 -12 -98 -17 -95 -45 3 -23 -1
-27 -35 -32 -128 -18 -147 -17 -209 8 -143 58 -367 93 -524 81 -159 -12 -253
-33 -411 -94 -253 -98 -437 -145 -629 -160 -110 -9 -270 0 -341 19 -33 9 -44
9 -50 -2 -14 -21 -12 -26 49 -179 32 -79 116 -297 187 -484 271 -719 534
-1407 537 -1410 5 -5 342 84 883 235 275 76 554 152 620 170 66 17 128 34 138
36 23 7 22 -18 -1 -39 -10 -9 -33 -20 -51 -23 -35 -7 -58 -41 -48 -68 10 -24
85 -39 197 -38 162 1 359 46 387 89 15 22 15 26 -1 41 -12 13 -39 18 -101 21
-121 5 -114 14 33 50 54 14 318 23 1316 46 93 2 171 7 174 9 8 9 -31 2124 -40
2130 -2 2 -86 -14 -188 -35z m-715 -288 c234 -36 434 -42 561 -15 42 8 78 14
80 12 1 -2 21 -341 43 -753 41 -768 45 -817 57 -850 6 -16 4 -17 -17 -11 -164
49 -440 79 -714 78 -321 -1 -586 -46 -751 -127 -49 -24 -90 -43 -91 -42 -14
15 -173 1373 -173 1478 0 37 67 94 179 152 237 123 424 141 826 78z m-1680
-211 c66 -18 170 -46 230 -62 61 -17 149 -32 198 -35 48 -3 89 -9 92 -13 6
-10 187 -1381 183 -1386 -2 -2 -38 3 -79 12 -120 26 -342 15 -489 -24 -247
-65 -521 -207 -718 -371 -40 -34 -64 -47 -66 -39 -3 7 -17 56 -32 108 -42 148
-116 357 -251 710 -69 179 -154 413 -190 520 -35 107 -85 242 -109 298 -24 57
-44 108 -44 113 0 5 30 9 66 9 93 0 236 31 457 101 278 87 345 100 502 95 108
-3 151 -9 250 -36z"/>
<path d="M4921 4027 c-42 -52 -50 -131 -26 -267 8 -47 15 -85 15 -86 0 0 -14
-1 -30 -1 -47 0 -55 -15 -55 -101 0 -89 23 -149 100 -259 44 -62 45 -66 29
-84 -25 -28 -30 -110 -10 -164 24 -61 108 -136 242 -214 254 -149 334 -206
334 -240 0 -10 9 -26 20 -36 12 -11 20 -28 18 -39 -4 -31 -53 -23 -183 31
-194 80 -304 102 -338 68 -39 -39 53 -165 173 -236 37 -21 137 -70 222 -108
275 -121 358 -172 358 -217 0 -20 -49 2 -175 76 -76 45 -116 62 -167 70 -74
13 -96 7 -117 -33 -12 -23 -10 -29 19 -72 39 -57 132 -127 227 -172 196 -91
168 -23 -37 92 -102 57 -170 113 -170 140 0 11 8 13 33 8 45 -8 84 -29 147
-78 119 -92 197 -109 251 -56 36 37 36 58 0 107 -69 93 -142 142 -400 267
-171 82 -321 168 -321 183 0 20 104 -11 212 -62 104 -49 133 -59 189 -62 62
-4 67 -2 87 23 27 34 27 57 2 114 -50 110 -163 214 -385 354 -126 79 -167 115
-184 158 -7 20 -6 32 4 45 13 18 15 17 52 -14 65 -56 185 -131 259 -162 83
-34 192 -54 252 -45 40 6 42 8 36 33 -25 104 -289 250 -486 269 -67 6 -70 7
-115 57 -49 54 -103 159 -122 241 -11 44 -10 51 5 62 10 7 24 13 32 13 7 0 48
-35 91 -79 88 -89 174 -138 259 -148 28 -3 52 -3 52 1 0 17 -43 96 -71 129
-38 46 -165 137 -191 137 -38 0 -85 27 -95 56 -21 54 -36 184 -30 249 4 36 5
65 3 65 -2 0 -9 -6 -15 -13z m392 -888 c95 -32 172 -75 246 -139 24 -21 23
-42 -1 -23 -7 6 -58 30 -113 53 -127 54 -223 102 -255 128 l-25 21 44 -10 c24
-5 71 -19 104 -30z"/>
<path d="M5127 1925 c-21 -7 -65 -32 -97 -54 -71 -50 -119 -71 -160 -71 -16 0
-30 -5 -30 -11 0 -8 19 -10 63 -6 70 7 122 25 163 60 16 13 39 29 51 36 33 17
116 13 212 -10 66 -16 109 -20 186 -17 61 2 101 -1 102 -7 1 -5 -8 -9 -20 -8
-12 1 -42 0 -67 -3 -41 -5 -53 -14 -131 -94 -69 -70 -96 -91 -130 -100 -56
-15 -132 -7 -234 25 -44 14 -104 28 -132 31 -49 6 -53 5 -53 -15 0 -17 6 -21
31 -21 18 0 76 -20 130 -45 92 -42 104 -45 181 -45 133 1 195 33 291 149 l56
68 43 -8 c54 -10 102 -2 123 21 25 28 15 53 -33 77 -39 20 -54 21 -145 16 -88
-5 -117 -2 -210 21 -123 30 -137 30 -190 11z"/>
<path d="M4705 1893 c-66 -13 -383 -73 -705 -133 -322 -60 -595 -112 -607
-115 -20 -5 -24 0 -34 41 -10 39 -15 45 -33 40 -11 -2 -516 -98 -1121 -212
-605 -114 -1102 -208 -1104 -210 -3 -2 50 -149 116 -327 121 -321 121 -322
150 -321 15 1 386 88 823 193 437 106 869 208 960 227 91 19 205 44 253 55
l88 21 -7 32 c-3 17 -7 35 -8 40 0 5 55 17 124 27 193 28 482 83 860 162 l345
73 12 204 c7 113 12 210 10 216 -1 6 -44 2 -122 -13z m-34 -266 c-6 -15 -18
-27 -27 -27 -32 0 -911 -196 -1121 -249 l-73 -19 -10 42 c-6 22 -20 72 -30
110 -11 38 -17 72 -15 76 2 4 35 10 72 14 108 11 280 41 708 126 220 43 423
82 450 87 l50 8 3 -71 c1 -39 -2 -83 -7 -97z m-1466 -72 c52 -42 104 -121 112
-169 3 -20 2 -36 -2 -36 -27 0 -1593 -326 -1706 -355 -31 -8 -60 -15 -63 -15
-3 0 -6 17 -6 38 0 62 -28 137 -70 191 l-39 49 47 11 c331 72 687 147 857 181
232 46 766 138 804 139 13 1 43 -14 66 -34z m-1815 -412 c67 -76 89 -206 55
-320 -15 -49 -41 -76 -50 -50 -7 18 -115 440 -115 449 0 16 72 -36 110 -79z
m1256 -34 c61 -16 76 -44 41 -75 -42 -36 -133 -65 -191 -62 -36 2 -51 7 -51
17 0 23 49 52 96 57 l44 5 -27 -16 c-38 -21 -36 -36 3 -25 36 11 69 37 69 56
0 22 -34 25 -115 9 -66 -12 -99 -27 -204 -89 -138 -82 -243 -119 -366 -130
-90 -7 -140 8 -140 44 0 23 -4 25 -60 30 l-60 5 33 18 c36 20 163 47 218 47
48 0 43 -22 -8 -40 -53 -19 -57 -44 -8 -48 84 -8 272 53 413 134 112 65 220
86 313 63z"/>
</g>
</svg>
